<svg xmlns="http://www.w3.org/2000/svg" xmlns:xlink="http://www.w3.org/1999/xlink" width="1024" height="1024" viewBox="425.9734513274336 187.97345132743362 1434.0530973451328 1434.0530973451328" fill="rgba(0, 0, 0, 1)">
    <style>@media (prefers-color-scheme: dark) { svg { fill: #ffffff; } }</style>
    <path id="Shape" fill-rule="evenodd" stroke="none" d="M 1024 1536 L 512 1536 L 512 512 L 1024 512 C 1306.769775 512 1536 741.230713 1536 1024 C 1536 1306.769287 1306.769775 1536 1024 1536 Z M 1529.5 748.140625 C 1531.150024 749.15918 1534.074951 749.992554 1536 749.992554 C 1537.925049 749.992554 1540.92627 749.122803 1542.669556 748.059814 C 1544.412842 746.996948 1547.622314 743.736084 1549.801758 740.813599 C 1551.981079 737.891113 1556.797119 730.550049 1560.504028 724.5 C 1564.210938 718.449951 1571.073364 707.875 1575.753906 701 C 1580.434448 694.125 1588.58313 682.875 1593.862061 676 C 1599.140869 669.125 1608.861694 657.199951 1615.463867 649.5 C 1622.06604 641.800049 1634.452148 628.525024 1642.988647 620 C 1651.525269 611.474976 1663.682495 599.961914 1670.004761 594.415527 C 1676.327148 588.869019 1686.900024 580.063232 1693.5 574.847168 C 1700.099976 569.630981 1711.012939 561.42334 1717.750977 556.608032 C 1724.489014 551.792603 1736.414063 543.833496 1744.250977 538.921265 C 1752.087891 534.008911 1761.093384 528.123169 1764.262939 525.841919 C 1767.432617 523.560669 1770.920044 520.247314 1772.012939 518.479004 C 1773.105835 516.710693 1774 513.734009 1774 511.864136 C 1774 509.885864 1772.9552 506.926758 1771.501343 504.787109 C 1770.049683 502.650879 1764.916626 498.418213 1759.251343 494.686035 C 1753.888062 491.152832 1744.324951 484.97229 1738 480.951538 C 1731.675049 476.930786 1721.775024 470.256958 1716 466.12085 C 1710.224976 461.984863 1701.449951 455.456177 1696.5 451.612793 C 1691.550049 447.769287 1682.775024 440.575073 1677 435.625488 C 1671.224976 430.675903 1661.140625 421.647949 1654.59021 415.56311 C 1648.039917 409.478394 1637.06958 398.425049 1630.211792 391 C 1623.354004 383.574951 1613.580566 372.53418 1608.493042 366.464844 C 1603.40564 360.395508 1594.850098 349.595459 1589.480713 342.464844 C 1584.11145 335.334106 1575.363525 322.80896 1570.041016 314.631104 C 1564.718384 306.453247 1557.469238 295.244141 1553.931763 289.722046 C 1550.121948 283.774902 1545.910156 278.523804 1543.599976 276.840942 C 1541.02417 274.9646 1538.477661 274.001221 1536.099976 274.003784 C 1534.119995 274.005737 1531.130859 274.842407 1529.457397 275.862915 C 1527.783936 276.883423 1525.256836 279.094482 1523.841553 280.776489 C 1522.42627 282.458374 1517.513794 289.834229 1512.925049 297.167236 C 1508.336182 304.500244 1501.234741 315.449951 1497.144165 321.5 C 1493.053589 327.550049 1485.98999 337.449951 1481.447388 343.5 C 1476.904785 349.550049 1469.062988 359.449951 1464.02124 365.5 C 1458.97937 371.550049 1449.374512 382.509033 1442.677124 389.853394 C 1435.979736 397.197876 1424.199951 409.094604 1416.5 416.290771 C 1408.800049 423.486938 1397.247314 433.750244 1390.827515 439.098145 C 1384.407593 444.445923 1373.751709 452.901489 1367.147827 457.888306 C 1360.543945 462.875122 1348.833984 471.127808 1341.12561 476.227661 C 1333.417236 481.327393 1321.838989 488.875 1315.395996 493 C 1308.090942 497.677002 1302.612427 501.968018 1300.84082 504.400024 C 1298.961914 506.979614 1298 509.525024 1298 511.917847 C 1298 514.137085 1298.974487 516.969849 1300.52063 519.245239 C 1302.10791 521.580933 1307.385132 525.784058 1314.77063 530.59436 C 1321.221802 534.796265 1332.349976 542.07251 1339.5 546.763916 C 1346.650024 551.455322 1358.349976 559.6427 1365.5 564.958008 C 1372.650024 570.273438 1383.900024 579.123535 1390.5 584.625122 C 1397.099976 590.126587 1408.574951 600.281738 1416 607.192139 C 1423.425049 614.102539 1434.034302 624.648804 1439.576172 630.628296 C 1445.118042 636.607666 1454.288574 646.900024 1459.955322 653.5 C 1465.621948 660.099976 1474.913086 671.682861 1480.602417 679.239624 C 1486.291748 686.796387 1494.487549 698.271484 1498.815308 704.739624 C 1503.143188 711.207886 1509.769775 721.449951 1513.541138 727.5 C 1517.3125 733.550049 1521.771118 740.252441 1523.449097 742.394409 C 1525.127075 744.536255 1527.849976 747.12207 1529.5 748.140625 Z"/>
</svg>